<?xml version="1.0" encoding="UTF-8" standalone="no"?>
<svg
   version="1.1"
   viewBox="0 0 763.18317 297.86725"
   width="763.18317pt"
   height="297.86725pt"
   id="svg44"
   sodipodi:docname="logo-primary-color-light.svg"
   inkscape:export-filename="logo-primary-color-dark2.png"
   inkscape:export-xdpi="96"
   inkscape:export-ydpi="96"
   inkscape:version="1.4.4 (dcaf3e7d9e, 2026-05-05)"
   xmlns:inkscape="http://www.inkscape.org/namespaces/inkscape"
   xmlns:sodipodi="http://sodipodi.sourceforge.net/DTD/sodipodi-0.dtd"
   xmlns="http://www.w3.org/2000/svg"
   xmlns:svg="http://www.w3.org/2000/svg">
  <defs
     id="defs44" />
  <sodipodi:namedview
     id="namedview44"
     pagecolor="#ffffff"
     bordercolor="#000000"
     borderopacity="0.25"
     inkscape:showpageshadow="2"
     inkscape:pageopacity="0.0"
     inkscape:pagecheckerboard="0"
     inkscape:deskcolor="#d1d1d1"
     inkscape:document-units="pt"
     showguides="true"
     inkscape:zoom="0.53648627"
     inkscape:cx="1007.4815"
     inkscape:cy="624.43351"
     inkscape:window-width="2014"
     inkscape:window-height="1112"
     inkscape:window-x="0"
     inkscape:window-y="0"
     inkscape:window-maximized="0"
     inkscape:current-layer="svg44">
    <sodipodi:guide
       position="0.22494632,346.32853"
       orientation="1,0"
       id="guide44"
       inkscape:locked="false" />
    <sodipodi:guide
       position="528.72621,-0.18511444"
       orientation="0,-1"
       id="guide45"
       inkscape:locked="false" />
    <sodipodi:guide
       position="312.14568,-21.889164"
       orientation="1,0"
       id="guide46"
       inkscape:locked="false" />
    <sodipodi:guide
       position="279.84278,-21.666384"
       orientation="1,0"
       id="guide47"
       inkscape:locked="false" />
    <inkscape:page
       x="0"
       y="0"
       width="763.18317"
       height="297.86725"
       id="page2"
       margin="0"
       bleed="0" />
  </sodipodi:namedview>
  <path
     d="m 117.00782,0.02730102 c 7.96,0 15.91,-0.01 23.87,0 0,5.84999998 0,11.71000098 0,17.56000098 -7.95,0.01 -15.91,0.01 -23.87,0.01 0,-5.86 0,-11.720001 0,-17.57000098 z"
     fill="#111820"
     id="path3"
     style="fill:#373730;fill-opacity:1" />
  <path
     d="m 261.90782,0.11730102 c 7.91,-0.25 15.86,-0.01 23.77,-0.09 0.04,24.05000098 -0.04,48.11000098 0.04,72.17000098 10.9,-12.71 21.82,-25.4 32.79,-38.05 8.53,0.02 17.05,0 25.58,0.02 -10.71,11.97 -21.52,23.86 -32.24,35.82 11.56,18.68 23.16,37.329998 34.71,56.019998 -8.69,0.02 -17.38,0.02 -26.07,0 -8.15,-13.87 -16.36,-27.709998 -24.52,-41.579998 -3.43,2.36 -6.84,4.74 -10.27,7.1 -0.02,11.499998 0,22.989998 -0.01,34.489998 -7.96,0 -15.91,0 -23.86,0 0.05,-41.829998 -0.12,-84.129998 0.08,-125.89999898 z"
     fill="#111820"
     id="path4"
     style="fill:#373730;fill-opacity:1" />
  <path
     id="path5"
     d="m 0.4677005,6.397941 c -0.01,39.870001 -0.01,79.749151 0,119.619149 8.34,0 16.6900405,0.01 25.0400405,-0.0103 0.01,-14.03 0,-28.049098 0,-42.079098 9.95,0 19.89008,2.5e-4 29.83008,0.0102 9.81,-0.1 19.35008,-2.02132 27.58008,-7.61132 8.2,-5.51 13.53972,-14.39885 15.21972,-24.06885 1.29,-7.71 0.86055,-16.05088 -1.93945,-23.40088 -2.79,-7.27 -8.33017,-13.17004 -15.18017,-16.79004 -8.13,-4.340001 -17.57067,-5.618951 -26.68067,-5.668951 -17.96,-0.01 -35.91963,0 -53.8696305,0 z M 25.507741,25.837892 c 8.61,0.01 17.22985,-0.0212 25.83985,0.009 5.44,0.04 11.32986,0.77029 15.85986,4.05029 3.87,2.77 5.77049,7.17103 6.25049,11.81103 0.6,6.07 -0.43016,12.75975 -4.91016,17.23975 -4.29,4.32 -10.28066,5.63965 -16.18066,5.63965 -8.95,0.01 -17.90938,0 -26.85938,0 z"
     style="fill:#373730;fill-opacity:1" />
  <path
     d="m 210.33782,32.837302 c 9.46,0.98 18.45,4.9 24.9,12 4.71,5.16 7.33,11.49 8.78,18.26 -7.99,0.41 -15.98,0.79 -23.98,1.19 -1.17,-5.39 -2.96,-10.34 -7.92,-13.34 -7.11,-3.83 -17.41,-2.66 -21.99,4.55 -4.69,7.01 -5.31,17.07 -5.28,25.24 0.13,7.99 0.99,17.94 5.92,24.559998 5.81,8.16 19.38,8.11 25.54,0.42 2.8,-3.37 3.6,-7.199998 4.49,-11.359998 7.97,0.3 15.94,0.76 23.9,1.11 -1.02,6.099998 -3.06,11.849998 -6.83,16.809998 -6.74,9.11 -17.43,14.01 -28.52,15.13 -8.53,0.74 -17.55,0.11 -25.52,-3.26 -6.68,-2.78 -12.37,-7.52 -16.32,-13.58 -5.29,-8.05 -7.26,-17.319998 -7.65,-26.829998 -0.32,-9.37 0.71,-19.27 4.54,-27.92 3.4,-7.74 9.16,-14.36 16.68,-18.33 8.72,-4.65 19.56,-5.69 29.26,-4.65 z"
     fill="#111820"
     id="path13"
     style="fill:#373730;fill-opacity:1" />
  <path
     d="m 140.87782,34.157302 c 0,30.62 0.01,61.24 -0.01,91.859998 -7.95,0 -15.9,0.01 -23.86,0 0,-30.619998 0.01,-61.239998 0,-91.849998 7.96,-0.02 15.91,-0.01 23.87,-0.01 z"
     fill="#111820"
     id="path14"
     style="fill:#373730;fill-opacity:1" />
  <path
     d="m 59.724371,179.50104 c 10.88186,3.20055 18.2929,11.32282 22.06243,21.84906 -5.29157,1.45092 -10.58313,2.90183 -15.8747,4.38119 -1.84921,-3.31434 -3.27167,-6.48644 -6.3442,-8.90463 -7.32569,-6.0597 -18.70541,-6.68558 -27.2971,-3.21477 -8.34987,3.54194 -12.19053,11.64999 -13.3854,20.21323 -1.22332,9.60164 -0.64011,21.64992 5.32002,29.74374 6.24462,8.74816 18.94724,10.56892 28.59155,7.42527 7.29724,-2.58889 11.081,-8.39254 14.29577,-15.03546 5.2489,1.97723 10.52624,3.96868 15.77514,5.98858 -3.04408,6.48644 -6.64291,12.43235 -12.4608,16.79931 -10.44089,8.03693 -24.95003,9.27448 -37.55307,7.08388 -10.48357,-1.79231 -20.07098,-7.42527 -25.7892905,-16.52904 -7.2119,-11.1379 -8.1365,-26.30138 -6.15928,-39.06089 1.90611,-12.06251 8.37832,-23.02971 19.6300205,-28.43508 11.86336,-5.61873 26.68545,-5.87478 39.18891,-2.30439 z"
     fill="#ae5f24"
     id="path26"
     style="fill:#78b84b;fill-opacity:1;stroke-width:1.42246"
     inkscape:export-filename="path26.png"
     inkscape:export-xdpi="96"
     inkscape:export-ydpi="96" />
  <path
     d="m 683.11962,183.0003 c 0,5.22045 0,10.45512 0.014,15.67557 4.2105,0 8.4352,0.0142 12.6457,0.0142 0.014,3.91178 0.014,7.80933 0,11.72111 -4.2247,0 -8.4495,0.0142 -12.6742,0.0142 0.057,11.09522 0,22.19045 0,33.28568 0.128,3.20055 -0.028,7.39682 2.8307,9.53051 2.7454,2.23327 7.3399,0.98151 10.6258,0.82503 -0.014,3.55617 -0.043,7.11233 -0.043,10.66849 -7.2404,1.53626 -16.6144,3.55616 -23.4992,-0.0569 -5.2346,-2.84493 -6.8847,-8.22184 -7.0269,-13.84058 -0.1565,-13.47074 0.014,-26.94149 -0.057,-40.39801 -2.8165,-0.0142 -5.633,-0.0285 -8.4495,-0.0285 0,-3.91178 -0.014,-7.80933 0,-11.72111 3.1152,0 6.2446,-0.0285 9.3741,-0.0427 1.7923,-5.192 3.4281,-10.45512 5.4338,-15.56177 3.5988,-0.18492 7.2261,-0.0996 10.8249,-0.0854 z"
     fill="#ae5f24"
     id="path27"
     style="fill:#78b84b;fill-opacity:1;stroke-width:1.42246" />
  <path
     id="path29"
     style="fill:#78b84b;fill-opacity:1;stroke-width:1.42246"
     d="m 124.76262,197.43554 c -4.05802,0.0636 -8.08742,0.64166 -11.8374,1.63916 -6.99852,2.0199 -13.002079,6.57173 -16.743159,12.83057 -4.43809,7.41104 -5.37742,16.22921 -4.73731,24.69287 0.68279,8.39255 3.68517,16.40169 10.015139,22.14844 6.50066,6.03126 14.93582,8.0376 23.59863,8.0376 9.99993,-0.0569 19.72987,-3.12997 26.21631,-11.08155 7.25457,-8.84773 8.33522,-21.06662 6.77051,-32.00537 -1.35134,-8.98998 -5.78977,-17.33935 -13.92627,-21.86279 -5.75209,-3.18277 -12.59307,-4.50492 -19.35645,-4.39893 z m -0.22851,11.88867 c 4.6988,-0.20537 9.4685,1.58164 12.18896,5.625 3.31435,4.8506 3.72595,11.6495 3.7544,17.33936 -0.0711,6.14504 -0.72511,12.85877 -4.70801,17.8374 -3.84065,4.66568 -10.17038,5.51902 -15.7749,4.125 -5.43381,-1.74963 -8.37892,-7.02587 -9.55957,-12.30322 -1.2091,-6.13082 -1.22288,-13.18649 -0.085,-19.33154 1.16642,-5.47649 3.96866,-10.58293 9.5874,-12.43213 1.47225,-0.50142 3.03041,-0.79141 4.59668,-0.85987 z" />
  <path
     d="m 171.77194,198.69009 c 5.53339,-0.0142 11.081,-0.0142 16.62862,0 0.27026,4.45232 0.46941,8.89041 0.56898,13.34272 3.12943,-5.54761 5.83211,-10.68271 12.06251,-13.2147 6.37264,-2.41819 15.007,-1.963 20.44082,2.48932 3.52771,2.85915 4.63723,6.64291 6.15927,10.72538 2.87338,-5.56183 5.73254,-10.66848 11.83491,-13.1578 7.35414,-2.71691 17.39675,-2.03412 22.78789,4.29585 4.8506,5.68986 5.80366,13.31427 5.84633,20.52617 0,13.95438 0.0142,27.89454 -0.0142,41.83469 -5.73254,0.0142 -11.4793,0.0142 -17.21183,0 -0.0569,-12.50347 0.0142,-25.00693 -0.0142,-37.52462 -0.14224,-4.63724 -0.39829,-10.4978 -3.32856,-14.35268 -3.21477,-4.31007 -9.91458,-4.19627 -13.47075,-0.39829 -4.43809,4.70836 -5.12087,11.43662 -5.27734,17.5959 -0.0427,11.55041 0.0285,23.11505 0,34.67969 -5.71831,0.0142 -11.43662,0.0142 -17.15493,0 -0.0285,-12.03405 -0.0142,-24.06811 0,-36.08793 -0.0569,-5.06398 -0.1707,-10.85341 -2.95873,-15.27728 -2.87338,-4.55189 -9.61586,-4.93595 -13.37117,-1.29444 -4.39542,4.19627 -5.59029,10.68271 -5.67563,16.51482 -0.0711,12.04827 0.0285,24.09655 -0.0285,36.14483 -5.78944,0.0142 -11.56464,0.0142 -17.35408,0 -0.22759,-22.26158 0.49787,-44.59428 -0.46941,-66.84163 z"
     fill="#ae5f24"
     id="path30"
     style="fill:#78b84b;fill-opacity:1;stroke-width:1.42246" />
  <path
     id="path31"
     style="fill:#78b84b;fill-opacity:1;stroke-width:1.42246"
     d="m 324.55559,197.28613 c -5.4656,-0.22671 -11.1815,0.99474 -15.54492,4.1206 -3.0583,2.14792 -4.82092,5.09313 -6.84082,8.13721 -0.12802,-3.62729 -0.35626,-7.24101 -0.6123,-10.83984 -5.59029,0.0569 -11.20959,-0.25601 -16.78565,0.0996 0.49786,30.93861 0.12937,62.01974 0.24317,92.98681 5.77521,0.0142 11.56457,0.0147 17.354,0.0147 -0.0853,-12.33277 0.29861,-24.69512 -0.29883,-37.01367 2.63156,4.0398 5.27721,7.69684 9.8291,9.73096 8.30719,3.81221 19.88568,2.95763 26.68506,-3.52881 6.27307,-5.78943 8.80436,-14.73603 9.41602,-22.98633 0.58321,-9.45939 0.2991,-19.67333 -4.06787,-28.29346 -2.84493,-5.71831 -7.73797,-10.22705 -14.05371,-11.73486 -1.70696,-0.38051 -3.50138,-0.6173 -5.32325,-0.69287 z m -8.65136,11.99414 c 4.09803,-0.17737 8.19184,1.59298 10.51757,5.15625 3.25744,5.00708 3.79815,12.04839 3.84082,17.85205 -0.12802,6.0028 -0.82425,13.58426 -4.69335,18.47754 -3.3428,4.29584 -9.61639,5.0214 -14.42432,3.10107 -4.60879,-2.1337 -6.91258,-6.9269 -7.99365,-11.63525 -1.45092,-6.82784 -1.38053,-14.30963 0.26953,-21.08057 1.20909,-4.60878 3.76931,-9.26098 8.44922,-11.03906 1.30155,-0.49786 2.66817,-0.77291 4.03418,-0.83203 z" />
  <path
     id="path32"
     style="fill:#78b84b;fill-opacity:1;stroke-width:1.42246"
     d="m 392.14202,197.43554 c -4.05144,0.0292 -8.07811,0.57008 -11.82275,1.5249 -6.35841,1.80653 -12.07695,5.54708 -15.88916,10.99512 -4.87905,6.75671 -6.44294,15.59042 -6.21534,23.75537 0.35561,8.81928 2.70288,17.36812 9.0044,23.84033 5.53339,5.81789 13.07162,8.56305 20.96631,9.08936 10.65426,0.71124 21.47924,-1.56431 28.96144,-9.67236 7.9373,-8.56324 9.3603,-20.68187 8.0801,-31.83399 -1.0811,-9.43095 -5.4053,-18.22238 -13.812,-23.12988 -5.6988,-3.245 -12.5206,-4.61747 -19.273,-4.56885 z m 0.91553,11.896 c 3.93775,0.18795 7.74868,1.79972 10.22021,5.0625 3.41392,4.43809 4.04031,11.0668 4.19678,16.47217 0.0569,6.18772 -0.55434,13.93986 -4.50879,19.01806 -3.79798,4.99285 -10.86832,5.91754 -16.54395,4.18213 -5.192,-1.963 -7.79487,-6.9553 -8.98974,-12.07617 -1.36557,-6.65714 -1.39375,-13.82639 0.15674,-20.45508 1.266,-4.79371 3.66996,-9.14614 8.50634,-11.05224 2.19238,-0.86415 4.59975,-1.26414 6.96241,-1.15137 z" />
  <path
     d="m 439.49412,198.67587 c 5.4764,0 10.9387,0 16.401,0.0142 0.3129,4.45232 0.6543,8.89041 0.9246,13.34272 2.7311,-5.22044 5.6472,-9.8719 11.1948,-12.44657 6.9274,-3.20054 16.4152,-3.02985 22.9443,1.08108 7.2973,4.72258 9.3314,13.45652 9.4452,21.64992 0.085,14.39534 0,28.80491 0.029,43.21448 -5.7752,0.0142 -11.5362,0.0142 -17.2972,0 -0.028,-12.03405 -0.014,-24.06811 0.014,-36.10216 -0.043,-4.87905 -0.2987,-10.79651 -3.2148,-14.90743 -3.6984,-5.26312 -12.1905,-5.29157 -16.7139,-1.13797 -4.5661,4.18204 -5.9459,10.07105 -6.0455,16.0454 -0.071,12.03405 0.028,24.06811 -0.029,36.10216 -5.7752,0.0142 -11.5646,0.0142 -17.354,0 -0.1138,-22.29002 0.2845,-44.58005 -0.2987,-66.85585 z"
     fill="#ae5f24"
     id="path33"
     style="fill:#78b84b;fill-opacity:1;stroke-width:1.42246" />
  <path
     id="path34"
     style="fill:#78b84b;fill-opacity:1;stroke-width:1.42246"
     d="m 544.88132,197.45019 c -2.4545,-0.0167 -4.9293,0.1868 -7.3653,0.55664 -7.8235,1.22332 -15.021,5.37683 -19.2173,12.19043 -5.5049,8.71971 -6.0451,20.75382 -4.6084,30.68262 1.3798,9.99993 6.643,19.17546 16.2305,23.22949 8.6059,3.62728 20.7679,3.59876 29.3027,-0.19922 6.8848,-2.97295 11.0097,-8.61991 14.0538,-15.23437 -5.3627,-0.49786 -10.7257,-0.99605 -16.0884,-1.43702 -1.5362,2.26172 -2.9587,5.26301 -5.5049,6.48633 -5.3912,2.58889 -12.9309,1.82101 -16.6436,-3.28564 -3.3143,-4.33852 -3.3991,-9.71511 -4.0107,-14.93555 14.3811,-0.0854 28.776,2.2e-4 43.1572,-0.0425 -0.2561,-10.85341 -1.5362,-22.16194 -9.3882,-30.38379 -5.3769,-5.53694 -12.5542,-7.57743 -19.9174,-7.62744 z m -0.8438,10.92627 c 3.8513,-0.0498 7.7314,1.52211 9.8936,4.72266 2.4466,3.30012 2.845,7.52572 3.542,11.4375 -8.7908,0.0569 -17.5808,0.0711 -26.3716,0 0.7397,-3.84065 0.9378,-7.85175 3.2138,-11.15186 2.0484,-3.28589 5.8709,-4.95851 9.7222,-5.0083 z" />
  <path
     d="m 586.77612,198.81811 c 5.4622,-0.36984 10.9672,-0.0569 16.4437,-0.12802 0.3271,4.45232 0.5974,8.90463 0.7681,13.37117 3.1152,-5.64718 6.3584,-10.64004 12.6457,-13.05823 8.3214,-3.10097 19.8861,-2.0199 25.7182,5.3627 4.495,5.47649 5.2916,12.54614 5.3911,19.37397 0,13.92593 -0.014,27.86609 -0.014,41.79202 -5.7752,0.0142 -11.5362,0.0142 -17.3114,-0.0142 0,-12.01983 0,-24.05389 0.028,-36.08794 -0.1,-5.12087 -0.2134,-11.10945 -3.542,-15.33417 -3.926,-4.99285 -12.5319,-4.72259 -16.8277,-0.32717 -4.2105,4.23895 -5.5334,9.82923 -5.4908,15.66134 -0.028,12.01983 0.029,24.05388 0,36.07371 -5.8463,0.0427 -11.6784,0.0569 -17.5247,0.0142 -0.1138,-22.21891 0.256,-44.52316 -0.2845,-66.69939 z"
     fill="#ae5f24"
     id="path35"
     style="fill:#78b84b;fill-opacity:1;stroke-width:1.42246" />
  <path
     d="m 733.87322,197.39565 c 7.7951,0.0569 16.145,1.67851 21.9771,7.22612 3.2716,2.98718 4.4381,6.74248 5.9743,10.73961 -5.0639,0.58321 -10.1279,1.12375 -15.2061,1.59316 -1.6785,-2.93028 -2.5036,-5.76098 -5.9886,-6.99853 -4.5377,-1.50781 -11.5646,-1.46513 -16.017,0.31295 -3.6272,1.33711 -4.2531,5.34847 -2.8307,8.56324 1.4936,2.09102 3.9972,2.87338 6.3442,3.58461 8.6628,2.36129 19.502,3.45659 27.1691,8.32142 9.6017,5.80366 10.4267,20.81066 2.532,28.3355 -5.6045,5.36269 -13.5703,7.16922 -21.0809,7.61019 -8.2219,0.35561 -18.2645,-0.18492 -25.4053,-4.76526 -4.9075,-3.07252 -7.1976,-7.75243 -9.1037,-13.00133 5.0355,-0.79658 10.0568,-1.56471 15.1065,-2.27594 1.9061,3.38546 2.973,6.61446 7.155,7.68131 6.0455,1.35134 13.3997,1.62161 19.2033,-0.81081 4.5519,-2.27594 4.7368,-8.93308 0.1849,-11.35127 -9.0326,-4.49499 -23.2573,-3.94023 -32.1192,-10.52624 -8.9473,-6.21617 -8.8477,-21.02403 -0.6828,-27.82341 6.1735,-5.27735 14.9501,-6.458 22.7879,-6.41532 z"
     fill="#ae5f24"
     id="path36"
     style="fill:#78b84b;fill-opacity:1;stroke-width:1.42246" />
  <rect
     style="fill:#78b84b;fill-opacity:1;stroke-width:0.432982"
     id="rect45"
     width="17.375563"
     height="7.7960424"
     x="284.9823"
     y="290.0712" />
</svg>
