<?xml version="1.0" encoding="UTF-8" standalone="no"?>
<svg
   version="1.1"
   viewBox="0 0 1618 647"
   width="1618.0pt"
   height="647.0pt"
   id="svg44"
   sodipodi:docname="logo-primary-color-dark.svg"
   inkscape:export-filename="logo-primary-color-dark2.png"
   inkscape:export-xdpi="96"
   inkscape:export-ydpi="96"
   inkscape:version="1.4.4 (dcaf3e7d9e, 2026-05-05)"
   xmlns:inkscape="http://www.inkscape.org/namespaces/inkscape"
   xmlns:sodipodi="http://sodipodi.sourceforge.net/DTD/sodipodi-0.dtd"
   xmlns="http://www.w3.org/2000/svg"
   xmlns:svg="http://www.w3.org/2000/svg">
  <defs
     id="defs44" />
  <sodipodi:namedview
     id="namedview44"
     pagecolor="#ffffff"
     bordercolor="#000000"
     borderopacity="0.25"
     inkscape:showpageshadow="2"
     inkscape:pageopacity="0.0"
     inkscape:pagecheckerboard="0"
     inkscape:deskcolor="#d1d1d1"
     inkscape:document-units="pt"
     showguides="true"
     inkscape:zoom="0.53648627"
     inkscape:cx="1007.4815"
     inkscape:cy="624.43351"
     inkscape:window-width="2014"
     inkscape:window-height="1112"
     inkscape:window-x="0"
     inkscape:window-y="0"
     inkscape:window-maximized="0"
     inkscape:current-layer="svg44">
    <sodipodi:guide
       position="589.88713,518.19859"
       orientation="1,0"
       id="guide44"
       inkscape:locked="false" />
    <sodipodi:guide
       position="1118.3884,171.68494"
       orientation="0,-1"
       id="guide45"
       inkscape:locked="false" />
    <sodipodi:guide
       position="901.80787,149.98089"
       orientation="1,0"
       id="guide46"
       inkscape:locked="false" />
    <sodipodi:guide
       position="869.50497,150.20367"
       orientation="1,0"
       id="guide47"
       inkscape:locked="false" />
  </sodipodi:namedview>
  <path
     d="M 435.08 166.88 C 445.24 173.64 453.33 183.07 457.08 194.80 C 456.01 194.70 454.93 194.59 453.86 194.49 C 449.07 197.74 445.28 202.84 439.00 202.76 C 434.58 202.77 432.04 199.69 428.98 197.03 C 423.18 191.34 413.65 188.97 406.02 191.91 C 399.91 194.60 394.86 200.34 390.95 205.61 C 381.27 205.22 370.76 204.49 362.43 210.42 C 359.00 212.98 354.58 217.28 355.28 221.98 C 356.09 230.87 360.21 237.88 364.57 245.39 C 356.99 242.24 349.63 238.55 342.47 234.53 C 333.74 229.53 325.33 224.47 317.75 217.79 C 319.41 211.64 321.21 205.62 323.75 199.76 C 329.68 185.69 339.41 173.48 352.54 165.53 C 377.44 150.17 410.73 150.68 435.08 166.88 Z"
     fill="#ae5f24"
     id="path2" />
  <path
     d="M 706.67 177.29 C 714.63 177.29 722.58 177.28 730.54 177.29 C 730.54 183.14 730.54 189.00 730.54 194.85 C 722.59 194.86 714.63 194.86 706.67 194.86 C 706.67 189.00 706.67 183.14 706.67 177.29 Z"
     fill="#111820"
     id="path3"
     style="fill:#e8ecf2;fill-opacity:1" />
  <path
     d="M 851.57 177.38 C 859.48 177.13 867.43 177.37 875.34 177.29 C 875.38 201.34 875.30 225.40 875.38 249.46 C 886.28 236.75 897.20 224.06 908.17 211.41 C 916.70 211.43 925.22 211.41 933.75 211.43 C 923.04 223.40 912.23 235.29 901.51 247.25 C 913.07 265.93 924.67 284.58 936.22 303.27 C 927.53 303.29 918.84 303.29 910.15 303.27 C 902.00 289.40 893.79 275.56 885.63 261.69 C 882.20 264.05 878.79 266.43 875.36 268.79 C 875.34 280.29 875.36 291.78 875.35 303.28 C 867.39 303.28 859.44 303.28 851.49 303.28 C 851.54 261.45 851.37 219.15 851.57 177.38 Z"
     fill="#111820"
     id="path4"
     style="fill:#e8ecf2;fill-opacity:1" />
  <path
     id="path5"
     d="M 590.12988 183.66064 C 590.11988 223.53064 590.11988 263.40979 590.12988 303.27979 C 598.46988 303.27979 606.81992 303.28953 615.16992 303.26953 C 615.17992 289.23953 615.16992 275.22043 615.16992 261.19043 C 625.11992 261.19043 635.06 261.19068 645 261.20068 C 654.81 261.10068 664.35008 259.17936 672.58008 253.58936 C 680.78008 248.07936 686.1198 239.19051 687.7998 229.52051 C 689.0898 221.81051 688.66035 213.46963 685.86035 206.11963 C 683.07035 198.84963 677.53018 192.94959 670.68018 189.32959 C 662.55018 184.98959 653.10951 183.71064 643.99951 183.66064 C 626.03951 183.65064 608.07988 183.66064 590.12988 183.66064 z M 615.16992 203.10059 C 623.77992 203.11059 632.39977 203.07938 641.00977 203.10938 C 646.44977 203.14938 652.33963 203.87967 656.86963 207.15967 C 660.73963 209.92967 662.64012 214.3307 663.12012 218.9707 C 663.72012 225.0407 662.68996 231.73045 658.20996 236.21045 C 653.91996 240.53045 647.9293 241.8501 642.0293 241.8501 C 633.0793 241.8601 624.11992 241.8501 615.16992 241.8501 L 615.16992 203.10059 z "
     style="fill:#e8ecf2;fill-opacity:1" />
  <path
     d="M 428.98 197.03 C 432.04 199.69 434.58 202.77 439.00 202.76 C 445.28 202.84 449.07 197.74 453.86 194.49 C 452.43 199.85 450.40 204.59 447.21 209.14 C 459.53 213.17 471.89 216.65 484.76 218.47 C 475.00 223.97 464.95 228.84 454.85 233.68 C 452.98 245.34 449.60 256.88 444.58 267.58 C 443.18 270.87 440.80 273.19 441.75 277.00 C 443.22 285.04 444.76 293.83 443.96 302.01 C 441.11 307.47 438.16 312.75 434.88 317.96 C 429.32 306.80 423.85 295.59 418.78 284.21 C 417.39 280.81 415.44 276.92 416.40 273.18 C 418.52 269.18 421.64 265.77 423.69 261.69 C 428.06 253.62 432.60 243.30 431.38 233.97 C 430.72 228.18 427.35 223.87 423.04 220.22 C 417.86 220.38 413.12 220.77 408.18 218.83 C 401.05 216.23 395.73 211.35 390.95 205.61 C 394.86 200.34 399.91 194.60 406.02 191.91 C 413.65 188.97 423.18 191.34 428.98 197.03 Z"
     fill="#373730"
     id="path6"
     style="stroke:#e8ecf2;stroke-opacity:1" />
  <path
     d="M 407.44 193.49 C 412.16 192.09 416.68 193.44 419.68 197.35 C 423.63 202.25 422.74 209.87 417.38 213.37 C 411.85 217.80 402.72 215.36 400.22 208.76 C 397.53 202.67 400.62 194.90 407.44 193.49 Z"
     fill="#71706e"
     id="path7" />
  <path
     d="M 407.47 195.59 C 411.41 194.39 416.34 195.83 418.45 199.53 C 420.93 204.05 418.82 210.13 414.06 212.12 C 409.12 214.36 402.75 211.39 401.56 206.06 C 400.71 201.49 403.12 197.18 407.47 195.59 Z"
     fill="#111820"
     id="path8" />
  <path
     d="M 453.86 194.49 C 454.93 194.59 456.01 194.70 457.08 194.80 C 465.52 201.16 475.22 205.89 483.47 212.58 C 484.94 213.82 485.96 215.40 487.09 216.95 C 486.31 217.46 485.54 217.97 484.76 218.47 C 471.89 216.65 459.53 213.17 447.21 209.14 C 450.40 204.59 452.43 199.85 453.86 194.49 Z"
     fill="#71706e"
     id="path9" />
  <path
     d="M 410.76 197.18 C 412.24 198.14 412.49 200.99 410.80 201.86 C 409.56 203.04 407.89 201.78 406.66 201.20 C 406.68 200.09 406.70 198.99 406.74 197.88 C 408.11 197.28 409.22 196.75 410.76 197.18 Z"
     fill="#ffffff"
     id="path10" />
  <path
     d="M 390.95 205.61 C 395.73 211.35 401.05 216.23 408.18 218.83 C 413.12 220.77 417.86 220.38 423.04 220.22 C 427.35 223.87 430.72 228.18 431.38 233.97 C 432.60 243.30 428.06 253.62 423.69 261.69 C 421.64 265.77 418.52 269.18 416.40 273.18 C 415.44 276.92 417.39 280.81 418.78 284.21 C 423.85 295.59 429.32 306.80 434.88 317.96 C 433.24 328.13 431.53 338.17 427.85 347.85 C 419.86 369.92 403.84 389.21 385.24 403.25 C 359.04 422.49 327.35 434.48 295.13 438.35 C 291.25 438.74 287.38 439.20 283.51 439.64 L 282.68 439.49 C 281.60 439.28 280.51 439.07 279.43 438.86 C 274.29 437.88 269.03 437.17 263.94 435.95 C 258.84 434.37 253.82 432.55 248.72 430.96 C 252.69 425.61 258.01 423.21 263.15 419.17 C 280.69 405.97 298.10 393.56 313.82 378.82 C 319.57 373.53 324.78 367.74 329.69 361.67 C 333.40 356.95 337.05 352.31 339.43 346.74 C 342.54 343.24 344.88 339.28 347.24 335.26 C 353.29 324.81 357.79 313.50 360.24 301.66 C 362.57 290.64 363.62 279.43 363.21 268.16 C 349.08 259.53 335.22 250.14 322.68 239.31 C 319.88 236.92 317.33 234.38 314.40 232.14 C 315.50 227.35 316.59 222.56 317.75 217.79 C 325.33 224.47 333.74 229.53 342.47 234.53 C 349.63 238.55 356.99 242.24 364.57 245.39 C 360.21 237.88 356.09 230.87 355.28 221.98 C 354.58 217.28 359.00 212.98 362.43 210.42 C 370.76 204.49 381.27 205.22 390.95 205.61 Z"
     fill="#feebd3"
     id="path12" />
  <path
     d="M 800.00 210.10 C 809.46 211.08 818.45 215.00 824.90 222.10 C 829.61 227.26 832.23 233.59 833.68 240.36 C 825.69 240.77 817.70 241.15 809.70 241.55 C 808.53 236.16 806.74 231.21 801.78 228.21 C 794.67 224.38 784.37 225.55 779.79 232.76 C 775.10 239.77 774.48 249.83 774.51 258.00 C 774.64 265.99 775.50 275.94 780.43 282.56 C 786.24 290.72 799.81 290.67 805.97 282.98 C 808.77 279.61 809.57 275.78 810.46 271.62 C 818.43 271.92 826.40 272.38 834.36 272.73 C 833.34 278.83 831.30 284.58 827.53 289.54 C 820.79 298.65 810.10 303.55 799.01 304.67 C 790.48 305.41 781.46 304.78 773.49 301.41 C 766.81 298.63 761.12 293.89 757.17 287.83 C 751.88 279.78 749.91 270.51 749.52 261.00 C 749.20 251.63 750.23 241.73 754.06 233.08 C 757.46 225.34 763.22 218.72 770.74 214.75 C 779.46 210.10 790.30 209.06 800.00 210.10 Z"
     fill="#111820"
     id="path13"
     style="fill:#e8ecf2;fill-opacity:1" />
  <path
     d="M 730.54 211.42 C 730.54 242.04 730.55 272.66 730.53 303.28 C 722.58 303.28 714.63 303.29 706.67 303.28 C 706.67 272.66 706.68 242.04 706.67 211.43 C 714.63 211.41 722.58 211.42 730.54 211.42 Z"
     fill="#111820"
     id="path14"
     style="fill:#e8ecf2;fill-opacity:1" />
  <path
     d="M 314.40 232.14 C 317.33 234.38 319.88 236.92 322.68 239.31 C 335.22 250.14 349.08 259.53 363.21 268.16 C 363.62 279.43 362.57 290.64 360.24 301.66 C 359.61 302.00 358.97 302.33 358.34 302.67 C 336.34 302.38 314.33 301.72 292.33 301.62 C 279.89 301.87 267.47 301.07 255.05 301.21 C 254.72 301.76 254.40 302.31 254.10 302.87 L 254.50 300.97 C 252.36 301.20 250.22 301.43 248.08 301.67 C 246.10 301.90 244.12 302.14 242.15 302.42 C 253.00 291.18 264.01 280.10 275.22 269.22 C 287.92 256.46 301.35 244.51 314.40 232.14 Z"
     fill="#ae5f24"
     id="path15" />
  <path
     d="M 254.50 300.97 L 254.10 302.87 C 252.33 311.19 250.47 319.59 249.51 328.04 C 249.11 330.85 251.56 331.56 253.55 332.62 C 258.50 334.56 263.63 336.07 268.79 337.34 C 281.57 340.40 294.37 343.26 307.38 345.19 C 303.49 347.83 299.65 350.54 295.75 353.16 C 280.42 350.28 265.26 347.11 250.44 342.15 C 246.88 340.68 243.53 339.78 241.42 336.26 C 241.46 332.01 242.27 327.89 243.23 323.77 C 244.82 316.40 246.33 309.01 248.08 301.67 C 250.22 301.43 252.36 301.20 254.50 300.97 Z"
     fill="#feebd3"
     id="path16" />
  <path
     d="M 255.05 301.21 C 267.47 301.07 279.89 301.87 292.33 301.62 C 289.68 303.54 287.21 305.71 284.60 307.68 C 279.14 311.82 274.08 316.46 268.71 320.72 C 263.79 324.86 258.53 328.56 253.55 332.62 C 251.56 331.56 249.11 330.85 249.51 328.04 C 250.47 319.59 252.33 311.19 254.10 302.87 C 254.40 302.31 254.72 301.76 255.05 301.21 Z"
     fill="#644118"
     id="path17" />
  <path
     d="M 242.00 302.57 L 242.15 302.42 C 244.12 302.14 246.10 301.90 248.08 301.67 C 246.33 309.01 244.82 316.40 243.23 323.77 C 232.63 327.99 221.99 332.45 211.04 335.69 C 220.93 324.28 231.51 313.43 242.00 302.57 Z"
     fill="#644118"
     id="path18" />
  <path
     d="M 292.33 301.62 C 314.33 301.72 336.34 302.38 358.34 302.67 C 351.31 308.99 344.20 315.20 336.98 321.30 C 319.28 317.65 301.86 313.00 284.60 307.68 C 287.21 305.71 289.68 303.54 292.33 301.62 Z"
     fill="#feebd3"
     id="path19" />
  <path
     d="M 360.24 301.66 C 357.79 313.50 353.29 324.81 347.24 335.26 C 344.88 339.28 342.54 343.24 339.43 346.74 C 322.94 360.22 304.73 371.25 285.64 380.64 C 271.72 387.48 257.50 393.75 242.76 398.62 C 240.20 399.45 237.76 400.53 235.38 401.79 C 231.63 402.41 228.13 403.28 224.53 404.48 C 210.74 408.50 196.70 412.07 182.53 414.45 C 176.50 415.42 170.60 416.60 164.46 416.63 C 167.33 414.27 170.15 411.93 173.31 409.97 C 177.78 408.15 182.19 406.23 186.78 404.74 C 202.46 399.52 218.21 393.93 233.40 387.40 C 255.15 377.92 275.99 366.27 295.75 353.16 C 299.65 350.54 303.49 347.83 307.38 345.19 C 317.74 337.95 327.47 329.63 336.98 321.30 C 344.20 315.20 351.31 308.99 358.34 302.67 C 358.97 302.33 359.61 302.00 360.24 301.66 Z"
     fill="#644118"
     id="path20" />
  <path
     d="M 443.96 302.01 C 445.24 309.25 444.36 316.22 443.56 323.46 C 439.35 354.43 423.81 383.71 401.11 405.12 C 383.39 421.67 360.97 433.49 337.39 439.07 C 332.23 440.18 326.83 441.10 321.59 441.80 C 308.92 442.86 295.97 442.23 283.51 439.64 C 287.38 439.20 291.25 438.74 295.13 438.35 C 327.35 434.48 359.04 422.49 385.24 403.25 C 403.84 389.21 419.86 369.92 427.85 347.85 C 431.53 338.17 433.24 328.13 434.88 317.96 C 438.16 312.75 441.11 307.47 443.96 302.01 Z"
     fill="#e4c4a0"
     id="path21" />
  <path
     d="M 284.60 307.68 C 301.86 313.00 319.28 317.65 336.98 321.30 C 327.47 329.63 317.74 337.95 307.38 345.19 C 294.37 343.26 281.57 340.40 268.79 337.34 C 263.63 336.07 258.50 334.56 253.55 332.62 C 258.53 328.56 263.79 324.86 268.71 320.72 C 274.08 316.46 279.14 311.82 284.60 307.68 Z"
     fill="#ae5f24"
     id="path22" />
  <path
     d="M 243.23 323.77 C 242.27 327.89 241.46 332.01 241.42 336.26 C 229.00 342.86 216.71 349.68 204.31 356.32 C 198.79 359.24 194.05 362.47 188.06 364.32 C 195.33 354.49 203.27 345.14 211.04 335.69 C 221.99 332.45 232.63 327.99 243.23 323.77 Z"
     fill="#ae5f24"
     id="path23" />
  <path
     d="M 241.42 336.26 C 243.53 339.78 246.88 340.68 250.44 342.15 C 237.59 351.01 224.89 360.02 212.34 369.31 C 197.23 380.20 182.52 391.59 167.26 402.26 C 163.53 405.04 159.75 407.62 155.39 409.32 C 166.00 394.13 176.83 379.06 188.06 364.32 C 194.05 362.47 198.79 359.24 204.31 356.32 C 216.71 349.68 229.00 342.86 241.42 336.26 Z"
     fill="#644118"
     id="path24" />
  <path
     d="M 250.44 342.15 C 265.26 347.11 280.42 350.28 295.75 353.16 C 275.99 366.27 255.15 377.92 233.40 387.40 C 218.21 393.93 202.46 399.52 186.78 404.74 C 182.19 406.23 177.78 408.15 173.31 409.97 C 165.80 412.00 158.29 414.00 150.70 415.72 C 152.26 413.58 153.84 411.46 155.39 409.32 C 159.75 407.62 163.53 405.04 167.26 402.26 C 182.52 391.59 197.23 380.20 212.34 369.31 C 224.89 360.02 237.59 351.01 250.44 342.15 Z"
     fill="#ae5f24"
     id="path25" />
  <path
     d="M 339.43 346.74 C 337.05 352.31 333.40 356.95 329.69 361.67 C 324.78 367.74 319.57 373.53 313.82 378.82 C 298.10 393.56 280.69 405.97 263.15 419.17 C 258.01 423.21 252.69 425.61 248.72 430.96 C 240.14 429.28 231.69 430.27 223.29 432.38 C 216.77 433.94 210.23 435.25 203.81 437.20 C 196.55 438.37 188.14 438.97 181.83 442.83 C 165.22 451.50 148.72 460.35 132.22 469.21 C 128.83 470.97 125.51 472.81 122.36 474.98 C 119.00 474.84 115.65 474.75 112.29 474.77 C 116.38 471.89 120.76 469.57 125.08 467.09 C 142.22 457.25 159.43 447.55 176.36 437.38 C 192.39 427.71 208.54 418.24 224.53 408.52 C 228.19 406.35 231.90 404.27 235.38 401.79 C 237.76 400.53 240.20 399.45 242.76 398.62 C 257.50 393.75 271.72 387.48 285.64 380.64 C 304.73 371.25 322.94 360.22 339.43 346.74 Z"
     fill="#e4c4a0"
     id="path28" />
  <path
     d="m 649.38655,356.76374 c 10.88186,3.20055 18.2929,11.32282 22.06243,21.84906 -5.29157,1.45092 -10.58313,2.90183 -15.8747,4.38119 -1.84921,-3.31434 -3.27167,-6.48644 -6.3442,-8.90463 -7.32569,-6.0597 -18.70541,-6.68558 -27.2971,-3.21477 -8.34987,3.54194 -12.19053,11.64999 -13.3854,20.21323 -1.22332,9.60164 -0.64011,21.64992 5.32002,29.74374 6.24462,8.74816 18.94724,10.56892 28.59155,7.42527 7.29724,-2.58889 11.081,-8.39254 14.29577,-15.03546 5.2489,1.97723 10.52624,3.96868 15.77514,5.98858 -3.04408,6.48644 -6.64291,12.43235 -12.4608,16.79931 -10.44089,8.03693 -24.95003,9.27448 -37.55307,7.08388 -10.48357,-1.79231 -20.07098,-7.42527 -25.78929,-16.52904 -7.2119,-11.1379 -8.1365,-26.30138 -6.15928,-39.06089 1.90611,-12.06251 8.37832,-23.02971 19.63002,-28.43508 11.86336,-5.61873 26.68545,-5.87478 39.18891,-2.30439 z"
     fill="#ae5f24"
     id="path26"
     style="fill:#8ac85a;fill-opacity:1;stroke-width:1.42246"
     inkscape:export-filename="path26.png"
     inkscape:export-xdpi="96"
     inkscape:export-ydpi="96" />
  <path
     d="m 1272.7818,360.263 c 0,5.22045 0,10.45512 0.014,15.67557 4.2105,0 8.4352,0.0142 12.6457,0.0142 0.014,3.91178 0.014,7.80933 0,11.72111 -4.2247,0 -8.4495,0.0142 -12.6742,0.0142 0.057,11.09522 0,22.19045 0,33.28568 0.128,3.20055 -0.028,7.39682 2.8307,9.53051 2.7454,2.23327 7.3399,0.98151 10.6258,0.82503 -0.014,3.55617 -0.043,7.11233 -0.043,10.66849 -7.2404,1.53626 -16.6144,3.55616 -23.4992,-0.0569 -5.2346,-2.84493 -6.8847,-8.22184 -7.0269,-13.84058 -0.1565,-13.47074 0.014,-26.94149 -0.057,-40.39801 -2.8165,-0.0142 -5.633,-0.0285 -8.4495,-0.0285 0,-3.91178 -0.014,-7.80933 0,-11.72111 3.1152,0 6.2446,-0.0285 9.3741,-0.0427 1.7923,-5.192 3.4281,-10.45512 5.4338,-15.56177 3.5988,-0.18492 7.2261,-0.0996 10.8249,-0.0854 z"
     fill="#ae5f24"
     id="path27"
     style="fill:#8ac85a;fill-opacity:1;stroke-width:1.42246" />
  <path
     id="path29"
     style="fill:#8ac85a;fill-opacity:1;stroke-width:1.42246"
     d="m 714.4248,374.69824 c -4.05802,0.0636 -8.08742,0.64166 -11.8374,1.63916 -6.99852,2.0199 -13.00208,6.57173 -16.74316,12.83057 -4.43809,7.41104 -5.37742,16.22921 -4.73731,24.69287 0.68279,8.39255 3.68517,16.40169 10.01514,22.14844 6.50066,6.03126 14.93582,8.0376 23.59863,8.0376 9.99993,-0.0569 19.72987,-3.12997 26.21631,-11.08155 7.25457,-8.84773 8.33522,-21.06662 6.77051,-32.00537 -1.35134,-8.98998 -5.78977,-17.33935 -13.92627,-21.86279 -5.75209,-3.18277 -12.59307,-4.50492 -19.35645,-4.39893 z m -0.22851,11.88867 c 4.6988,-0.20537 9.4685,1.58164 12.18896,5.625 3.31435,4.8506 3.72595,11.6495 3.7544,17.33936 -0.0711,6.14504 -0.72511,12.85877 -4.70801,17.8374 -3.84065,4.66568 -10.17038,5.51902 -15.7749,4.125 -5.43381,-1.74963 -8.37892,-7.02587 -9.55957,-12.30322 -1.2091,-6.13082 -1.22288,-13.18649 -0.085,-19.33154 1.16642,-5.47649 3.96866,-10.58293 9.5874,-12.43213 1.47225,-0.50142 3.03041,-0.79141 4.59668,-0.85987 z" />
  <path
     d="m 761.43412,375.95279 c 5.53339,-0.0142 11.081,-0.0142 16.62862,0 0.27026,4.45232 0.46941,8.89041 0.56898,13.34272 3.12943,-5.54761 5.83211,-10.68271 12.06251,-13.2147 6.37264,-2.41819 15.007,-1.963 20.44082,2.48932 3.52771,2.85915 4.63723,6.64291 6.15927,10.72538 2.87338,-5.56183 5.73254,-10.66848 11.83491,-13.1578 7.35414,-2.71691 17.39675,-2.03412 22.78789,4.29585 4.8506,5.68986 5.80366,13.31427 5.84633,20.52617 0,13.95438 0.0142,27.89454 -0.0142,41.83469 -5.73254,0.0142 -11.4793,0.0142 -17.21183,0 -0.0569,-12.50347 0.0142,-25.00693 -0.0142,-37.52462 -0.14224,-4.63724 -0.39829,-10.4978 -3.32856,-14.35268 -3.21477,-4.31007 -9.91458,-4.19627 -13.47075,-0.39829 -4.43809,4.70836 -5.12087,11.43662 -5.27734,17.5959 -0.0427,11.55041 0.0285,23.11505 0,34.67969 -5.71831,0.0142 -11.43662,0.0142 -17.15493,0 -0.0285,-12.03405 -0.0142,-24.06811 0,-36.08793 -0.0569,-5.06398 -0.1707,-10.85341 -2.95873,-15.27728 -2.87338,-4.55189 -9.61586,-4.93595 -13.37117,-1.29444 -4.39542,4.19627 -5.59029,10.68271 -5.67563,16.51482 -0.0711,12.04827 0.0285,24.09655 -0.0285,36.14483 -5.78944,0.0142 -11.56464,0.0142 -17.35408,0 -0.22759,-22.26158 0.49787,-44.59428 -0.46941,-66.84163 z"
     fill="#ae5f24"
     id="path30"
     style="fill:#8ac85a;fill-opacity:1;stroke-width:1.42246" />
  <path
     id="path31"
     style="fill:#8ac85a;fill-opacity:1;stroke-width:1.42246"
     d="m 914.21777,374.54883 c -5.4656,-0.22671 -11.1815,0.99474 -15.54492,4.1206 -3.0583,2.14792 -4.82092,5.09313 -6.84082,8.13721 -0.12802,-3.62729 -0.35626,-7.24101 -0.6123,-10.83984 -5.59029,0.0569 -11.20959,-0.25601 -16.78565,0.0996 0.49786,30.93861 0.12937,62.01974 0.24317,92.98681 5.77521,0.0142 11.56457,0.0147 17.354,0.0147 -0.0853,-12.33277 0.29861,-24.69512 -0.29883,-37.01367 2.63156,4.0398 5.27721,7.69684 9.8291,9.73096 8.30719,3.81221 19.88568,2.95763 26.68506,-3.52881 6.27307,-5.78943 8.80436,-14.73603 9.41602,-22.98633 0.58321,-9.45939 0.2991,-19.67333 -4.06787,-28.29346 -2.84493,-5.71831 -7.73797,-10.22705 -14.05371,-11.73486 -1.70696,-0.38051 -3.50138,-0.6173 -5.32325,-0.69287 z m -8.65136,11.99414 c 4.09803,-0.17737 8.19184,1.59298 10.51757,5.15625 3.25744,5.00708 3.79815,12.04839 3.84082,17.85205 -0.12802,6.0028 -0.82425,13.58426 -4.69335,18.47754 -3.3428,4.29584 -9.61639,5.0214 -14.42432,3.10107 -4.60879,-2.1337 -6.91258,-6.9269 -7.99365,-11.63525 -1.45092,-6.82784 -1.38053,-14.30963 0.26953,-21.08057 1.20909,-4.60878 3.76931,-9.26098 8.44922,-11.03906 1.30155,-0.49786 2.66817,-0.77291 4.03418,-0.83203 z" />
  <path
     id="path32"
     style="fill:#8ac85a;fill-opacity:1;stroke-width:1.42246"
     d="m 981.8042,374.69824 c -4.05144,0.0292 -8.07811,0.57008 -11.82275,1.5249 -6.35841,1.80653 -12.07695,5.54708 -15.88916,10.99512 -4.87905,6.75671 -6.44294,15.59042 -6.21534,23.75537 0.35561,8.81928 2.70288,17.36812 9.0044,23.84033 5.53339,5.81789 13.07162,8.56305 20.96631,9.08936 10.65426,0.71124 21.47924,-1.56431 28.96144,-9.67236 7.9373,-8.56324 9.3603,-20.68187 8.0801,-31.83399 -1.0811,-9.43095 -5.4053,-18.22238 -13.812,-23.12988 -5.6988,-3.245 -12.5206,-4.61747 -19.273,-4.56885 z m 0.91553,11.896 c 3.93775,0.18795 7.74868,1.79972 10.22021,5.0625 3.41392,4.43809 4.04031,11.0668 4.19678,16.47217 0.0569,6.18772 -0.55434,13.93986 -4.50879,19.01806 -3.79798,4.99285 -10.86832,5.91754 -16.54395,4.18213 -5.192,-1.963 -7.79487,-6.9553 -8.98974,-12.07617 -1.36557,-6.65714 -1.39375,-13.82639 0.15674,-20.45508 1.266,-4.79371 3.66996,-9.14614 8.50634,-11.05224 2.19238,-0.86415 4.59975,-1.26414 6.96241,-1.15137 z" />
  <path
     d="m 1029.1563,375.93857 c 5.4764,0 10.9387,0 16.401,0.0142 0.3129,4.45232 0.6543,8.89041 0.9246,13.34272 2.7311,-5.22044 5.6472,-9.8719 11.1948,-12.44657 6.9274,-3.20054 16.4152,-3.02985 22.9443,1.08108 7.2973,4.72258 9.3314,13.45652 9.4452,21.64992 0.085,14.39534 0,28.80491 0.029,43.21448 -5.7752,0.0142 -11.5362,0.0142 -17.2972,0 -0.028,-12.03405 -0.014,-24.06811 0.014,-36.10216 -0.043,-4.87905 -0.2987,-10.79651 -3.2148,-14.90743 -3.6984,-5.26312 -12.1905,-5.29157 -16.7139,-1.13797 -4.5661,4.18204 -5.9459,10.07105 -6.0455,16.0454 -0.071,12.03405 0.028,24.06811 -0.029,36.10216 -5.7752,0.0142 -11.5646,0.0142 -17.354,0 -0.1138,-22.29002 0.2845,-44.58005 -0.2987,-66.85585 z"
     fill="#ae5f24"
     id="path33"
     style="fill:#8ac85a;fill-opacity:1;stroke-width:1.42246" />
  <path
     id="path34"
     style="fill:#8ac85a;fill-opacity:1;stroke-width:1.42246"
     d="m 1134.5435,374.71289 c -2.4545,-0.0167 -4.9293,0.1868 -7.3653,0.55664 -7.8235,1.22332 -15.021,5.37683 -19.2173,12.19043 -5.5049,8.71971 -6.0451,20.75382 -4.6084,30.68262 1.3798,9.99993 6.643,19.17546 16.2305,23.22949 8.6059,3.62728 20.7679,3.59876 29.3027,-0.19922 6.8848,-2.97295 11.0097,-8.61991 14.0538,-15.23437 -5.3627,-0.49786 -10.7257,-0.99605 -16.0884,-1.43702 -1.5362,2.26172 -2.9587,5.26301 -5.5049,6.48633 -5.3912,2.58889 -12.9309,1.82101 -16.6436,-3.28564 -3.3143,-4.33852 -3.3991,-9.71511 -4.0107,-14.93555 14.3811,-0.0854 28.776,2.2e-4 43.1572,-0.0425 -0.2561,-10.85341 -1.5362,-22.16194 -9.3882,-30.38379 -5.3769,-5.53694 -12.5542,-7.57743 -19.9174,-7.62744 z m -0.8438,10.92627 c 3.8513,-0.0498 7.7314,1.52211 9.8936,4.72266 2.4466,3.30012 2.845,7.52572 3.542,11.4375 -8.7908,0.0569 -17.5808,0.0711 -26.3716,0 0.7397,-3.84065 0.9378,-7.85175 3.2138,-11.15186 2.0484,-3.28589 5.8709,-4.95851 9.7222,-5.0083 z" />
  <path
     d="m 1176.4383,376.08081 c 5.4622,-0.36984 10.9672,-0.0569 16.4437,-0.12802 0.3271,4.45232 0.5974,8.90463 0.7681,13.37117 3.1152,-5.64718 6.3584,-10.64004 12.6457,-13.05823 8.3214,-3.10097 19.8861,-2.0199 25.7182,5.3627 4.495,5.47649 5.2916,12.54614 5.3911,19.37397 0,13.92593 -0.014,27.86609 -0.014,41.79202 -5.7752,0.0142 -11.5362,0.0142 -17.3114,-0.0142 0,-12.01983 0,-24.05389 0.028,-36.08794 -0.1,-5.12087 -0.2134,-11.10945 -3.542,-15.33417 -3.926,-4.99285 -12.5319,-4.72259 -16.8277,-0.32717 -4.2105,4.23895 -5.5334,9.82923 -5.4908,15.66134 -0.028,12.01983 0.029,24.05388 0,36.07371 -5.8463,0.0427 -11.6784,0.0569 -17.5247,0.0142 -0.1138,-22.21891 0.256,-44.52316 -0.2845,-66.69939 z"
     fill="#ae5f24"
     id="path35"
     style="fill:#8ac85a;fill-opacity:1;stroke-width:1.42246" />
  <path
     d="m 1323.5354,374.65835 c 7.7951,0.0569 16.145,1.67851 21.9771,7.22612 3.2716,2.98718 4.4381,6.74248 5.9743,10.73961 -5.0639,0.58321 -10.1279,1.12375 -15.2061,1.59316 -1.6785,-2.93028 -2.5036,-5.76098 -5.9886,-6.99853 -4.5377,-1.50781 -11.5646,-1.46513 -16.017,0.31295 -3.6272,1.33711 -4.2531,5.34847 -2.8307,8.56324 1.4936,2.09102 3.9972,2.87338 6.3442,3.58461 8.6628,2.36129 19.502,3.45659 27.1691,8.32142 9.6017,5.80366 10.4267,20.81066 2.532,28.3355 -5.6045,5.36269 -13.5703,7.16922 -21.0809,7.61019 -8.2219,0.35561 -18.2645,-0.18492 -25.4053,-4.76526 -4.9075,-3.07252 -7.1976,-7.75243 -9.1037,-13.00133 5.0355,-0.79658 10.0568,-1.56471 15.1065,-2.27594 1.9061,3.38546 2.973,6.61446 7.155,7.68131 6.0455,1.35134 13.3997,1.62161 19.2033,-0.81081 4.5519,-2.27594 4.7368,-8.93308 0.1849,-11.35127 -9.0326,-4.49499 -23.2573,-3.94023 -32.1192,-10.52624 -8.9473,-6.21617 -8.8477,-21.02403 -0.6828,-27.82341 6.1735,-5.27735 14.9501,-6.458 22.7879,-6.41532 z"
     fill="#ae5f24"
     id="path36"
     style="fill:#8ac85a;fill-opacity:1;stroke-width:1.42246" />
  <path
     d="M 235.38 401.79 C 231.90 404.27 228.19 406.35 224.53 408.52 C 208.54 418.24 192.39 427.71 176.36 437.38 C 159.43 447.55 142.22 457.25 125.08 467.09 C 120.76 469.57 116.38 471.89 112.29 474.77 C 106.52 474.69 101.11 474.59 95.77 472.15 C 117.90 452.80 141.53 435.07 164.46 416.63 C 170.60 416.60 176.50 415.42 182.53 414.45 C 196.70 412.07 210.74 408.50 224.53 404.48 C 228.13 403.28 231.63 402.41 235.38 401.79 Z"
     fill="#ae5f24"
     id="path41" />
  <path
     d="M 263.94 435.95 C 269.03 437.17 274.29 437.88 279.43 438.86 C 283.42 447.28 287.87 455.48 292.37 463.64 C 295.03 468.39 297.96 472.61 303.05 474.99 C 309.18 478.01 315.38 476.65 322.57 477.55 C 324.68 474.80 326.46 472.22 329.83 470.89 C 333.45 469.37 338.15 470.81 341.99 471.00 C 345.75 471.37 349.20 470.37 352.67 469.09 C 342.67 459.57 331.79 451.07 321.59 441.80 C 326.83 441.10 332.23 440.18 337.39 439.07 C 343.10 444.55 348.40 450.41 354.06 455.93 C 359.59 461.25 364.59 467.36 372.06 469.96 C 379.21 472.83 387.07 470.86 395.04 472.22 C 402.06 473.26 409.04 476.19 410.79 483.81 C 405.47 480.86 400.94 479.64 394.90 479.04 C 396.54 481.57 397.27 483.46 397.55 486.53 C 395.02 484.72 392.66 482.96 389.50 482.44 C 381.37 480.92 373.72 481.27 365.83 478.06 C 363.92 477.47 361.52 475.88 359.54 476.63 C 355.67 477.62 352.07 478.86 348.01 478.79 C 342.76 478.86 338.12 477.04 333.01 476.63 C 330.31 476.43 327.79 477.39 325.23 478.13 C 328.69 479.70 332.52 480.92 334.88 484.10 C 336.60 486.27 336.82 488.67 337.42 491.28 C 333.65 487.73 329.40 486.39 324.41 485.45 C 324.60 487.75 324.79 490.05 324.97 492.35 C 322.85 490.93 320.73 489.56 318.34 488.63 C 312.84 486.30 307.34 486.92 301.19 485.48 C 297.50 484.89 294.39 483.10 290.92 481.88 C 286.27 482.22 281.70 482.99 277.00 482.79 C 272.40 482.96 267.82 481.92 263.25 482.30 C 259.85 482.65 257.52 484.55 254.92 486.54 C 256.48 482.51 257.80 477.98 262.04 475.98 C 267.31 473.50 272.51 475.84 278.00 474.85 C 280.65 474.44 282.69 473.14 284.98 471.85 C 284.15 470.09 283.34 468.33 282.38 466.64 C 276.35 456.34 269.85 446.32 263.94 435.95 Z"
     fill="#ae5f24"
     id="path42" />
  <path
     d="M 203.81 437.20 C 182.08 448.56 161.73 462.62 140.00 474.04 C 134.77 476.24 127.95 474.83 122.36 474.98 C 125.51 472.81 128.83 470.97 132.22 469.21 C 148.72 460.35 165.22 451.50 181.83 442.83 C 188.14 438.97 196.55 438.37 203.81 437.20 Z"
     fill="#644118"
     id="path43" />
  <rect
     style="fill:#8ac85a;fill-opacity:1;stroke-width:0.432982"
     id="rect45"
     width="17.375563"
     height="7.7960424"
     x="874.64447"
     y="467.33389" />
</svg>
