<?xml version="1.0" encoding="UTF-8" standalone="no"?>
<svg
   version="1.1"
   viewBox="0 0 391.31998 337.99026"
   width="391.31998pt"
   height="337.99026pt"
   id="svg44"
   sodipodi:docname="logo-primary-color-light.svg"
   inkscape:export-filename="logo-primary-color-dark2.png"
   inkscape:export-xdpi="96"
   inkscape:export-ydpi="96"
   inkscape:version="1.4.4 (dcaf3e7d9e, 2026-05-05)"
   xmlns:inkscape="http://www.inkscape.org/namespaces/inkscape"
   xmlns:sodipodi="http://sodipodi.sourceforge.net/DTD/sodipodi-0.dtd"
   xmlns="http://www.w3.org/2000/svg"
   xmlns:svg="http://www.w3.org/2000/svg">
  <defs
     id="defs44" />
  <sodipodi:namedview
     id="namedview44"
     pagecolor="#ffffff"
     bordercolor="#000000"
     borderopacity="0.25"
     inkscape:showpageshadow="2"
     inkscape:pageopacity="0.0"
     inkscape:pagecheckerboard="0"
     inkscape:deskcolor="#d1d1d1"
     inkscape:document-units="pt"
     showguides="true"
     inkscape:zoom="0.53648627"
     inkscape:cx="1007.4815"
     inkscape:cy="624.43351"
     inkscape:window-width="2014"
     inkscape:window-height="1112"
     inkscape:window-x="0"
     inkscape:window-y="0"
     inkscape:window-maximized="0"
     inkscape:current-layer="svg44">
    <sodipodi:guide
       position="494.11712,363.54856"
       orientation="1,0"
       id="guide44"
       inkscape:locked="false" />
    <sodipodi:guide
       position="1022.6184,17.03492"
       orientation="0,-1"
       id="guide45"
       inkscape:locked="false" />
    <sodipodi:guide
       position="806.03785,-4.6691285"
       orientation="1,0"
       id="guide46"
       inkscape:locked="false" />
    <sodipodi:guide
       position="773.73495,-4.4463485"
       orientation="1,0"
       id="guide47"
       inkscape:locked="false" />
    <inkscape:page
       x="5.3084332e-21"
       y="0"
       width="391.31998"
       height="337.99026"
       id="page2"
       margin="0"
       bleed="0" />
  </sodipodi:namedview>
  <path
     d="m 339.31,12.520287 c 10.16,6.76 18.25,16.19 22,27.92 -1.07,-0.1 -2.15,-0.21 -3.22,-0.31 -4.79,3.25 -8.58,8.35 -14.86,8.27 -4.42,0.01 -6.96,-3.07 -10.02,-5.73 -5.8,-5.69 -15.33,-8.06 -22.96,-5.12 -6.11,2.69 -11.16,8.43 -15.07,13.7 -9.68,-0.39 -20.19,-1.12 -28.52,4.81 -3.43,2.56 -7.85,6.86 -7.15,11.56 0.81,8.89 4.93,15.9 9.29,23.41 -7.58,-3.15 -14.94,-6.84 -22.1,-10.86 -8.73,-5 -17.14,-10.06 -24.72,-16.74 1.66,-6.15 3.46,-12.17 6,-18.03 5.93,-14.07 15.66,-26.28 28.79,-34.23 24.9,-15.3599999 58.19,-14.8499999 82.54,1.35 z"
     fill="#ae5f24"
     id="path2" />
  <path
     d="m 333.21,42.670287 c 3.06,2.66 5.6,5.74 10.02,5.73 6.28,0.08 10.07,-5.02 14.86,-8.27 -1.43,5.36 -3.46,10.1 -6.65,14.65 12.32,4.03 24.68,7.51 37.55,9.33 -9.76,5.5 -19.81,10.37 -29.91,15.21 -1.87,11.66 -5.25,23.200003 -10.27,33.900003 -1.4,3.29 -3.78,5.61 -2.83,9.42 1.47,8.04 3.01,16.83 2.21,25.01 -2.85,5.46 -5.8,10.74 -9.08,15.95 -5.56,-11.16 -11.03,-22.37 -16.1,-33.75 -1.39,-3.4 -3.34,-7.29 -2.38,-11.03 2.12,-4 5.24,-7.41 7.29,-11.49 4.37,-8.070003 8.91,-18.390003 7.69,-27.720003 -0.66,-5.79 -4.03,-10.1 -8.34,-13.75 -5.18,0.16 -9.92,0.55 -14.86,-1.39 -7.13,-2.6 -12.45,-7.48 -17.23,-13.22 3.91,-5.27 8.96,-11.01 15.07,-13.7 7.63,-2.94 17.16,-0.57 22.96,5.12 z"
     fill="#373730"
     id="path6"
     style="stroke:#e8ecf2;stroke-opacity:1" />
  <path
     d="m 311.67,39.130287 c 4.72,-1.4 9.24,-0.05 12.24,3.86 3.95,4.9 3.06,12.52 -2.3,16.02 -5.53,4.43 -14.66,1.99 -17.16,-4.61 -2.69,-6.09 0.4,-13.86 7.22,-15.27 z"
     fill="#71706e"
     id="path7" />
  <path
     d="m 311.7,41.230287 c 3.94,-1.2 8.87,0.24 10.98,3.94 2.48,4.52 0.37,10.6 -4.39,12.59 -4.94,2.24 -11.31,-0.73 -12.5,-6.06 -0.85,-4.57 1.56,-8.88 5.91,-10.47 z"
     fill="#111820"
     id="path8" />
  <path
     d="m 358.09,40.130287 c 1.07,0.1 2.15,0.21 3.22,0.31 8.44,6.36 18.14,11.09 26.39,17.78 1.47,1.24 2.49,2.82 3.62,4.37 -0.78,0.51 -1.55,1.02 -2.33,1.52 -12.87,-1.82 -25.23,-5.3 -37.55,-9.33 3.19,-4.55 5.22,-9.29 6.65,-14.65 z"
     fill="#71706e"
     id="path9" />
  <path
     d="m 314.99,42.820287 c 1.48,0.96 1.73,3.81 0.04,4.68 -1.24,1.18 -2.91,-0.08 -4.14,-0.66 0.02,-1.11 0.04,-2.21 0.08,-3.32 1.37,-0.6 2.48,-1.13 4.02,-0.7 z"
     fill="#ffffff"
     id="path10" />
  <path
     d="m 295.18,51.250287 c 4.78,5.74 10.1,10.62 17.23,13.22 4.94,1.94 9.68,1.55 14.86,1.39 4.31,3.65 7.68,7.96 8.34,13.75 1.22,9.33 -3.32,19.65 -7.69,27.720003 -2.05,4.08 -5.17,7.49 -7.29,11.49 -0.96,3.74 0.99,7.63 2.38,11.03 5.07,11.38 10.54,22.59 16.1,33.75 -1.64,10.17 -3.35,20.21 -7.03,29.89 -7.99,22.07 -24.01,41.36 -42.61,55.4 -26.2,19.24 -57.89,31.23 -90.11,35.1 -3.88,0.39 -7.75,0.85 -11.62,1.29 l -0.83,-0.15 c -1.08,-0.21 -2.17,-0.42 -3.25,-0.63 -5.14,-0.98 -10.4,-1.69 -15.49,-2.91 -5.1,-1.58 -10.12,-3.4 -15.22,-4.99 3.97,-5.35 9.29,-7.75 14.43,-11.79 17.54,-13.2 34.95,-25.61 50.67,-40.35 5.75,-5.29 10.96,-11.08 15.87,-17.15 3.71,-4.72 7.36,-9.36 9.74,-14.93 3.11,-3.5 5.45,-7.46 7.81,-11.48 6.05,-10.45 10.55,-21.76 13,-33.6 2.33,-11.02 3.38,-22.23 2.97,-33.5 -14.13,-8.63 -27.99,-18.020003 -40.53,-28.850003 -2.8,-2.39 -5.35,-4.93 -8.28,-7.17 1.1,-4.79 2.19,-9.58 3.35,-14.35 7.58,6.68 15.99,11.74 24.72,16.74 7.16,4.02 14.52,7.71 22.1,10.86 -4.36,-7.51 -8.48,-14.52 -9.29,-23.41 -0.7,-4.7 3.72,-9 7.15,-11.56 8.33,-5.93 18.84,-5.2 28.52,-4.81 z"
     fill="#feebd3"
     id="path12" />
  <path
     d="m 218.63,77.780287 c 2.93,2.24 5.48,4.78 8.28,7.17 12.54,10.83 26.4,20.220003 40.53,28.850003 0.41,11.27 -0.64,22.48 -2.97,33.5 -0.63,0.34 -1.27,0.67 -1.9,1.01 -22,-0.29 -44.01,-0.95 -66.01,-1.05 -12.44,0.25 -24.86,-0.55 -37.28,-0.41 -0.33,0.55 -0.65,1.1 -0.95,1.66 l 0.4,-1.9 c -2.14,0.23 -4.28,0.46 -6.42,0.7 -1.98,0.23 -3.96,0.47 -5.93,0.75 10.85,-11.24 21.86,-22.32 33.07,-33.2 12.7,-12.76 26.13,-24.710003 39.18,-37.080003 z"
     fill="#ae5f24"
     id="path15" />
  <path
     d="m 158.73,146.61029 -0.4,1.9 c -1.77,8.32 -3.63,16.72 -4.59,25.17 -0.4,2.81 2.05,3.52 4.04,4.58 4.95,1.94 10.08,3.45 15.24,4.72 12.78,3.06 25.58,5.92 38.59,7.85 -3.89,2.64 -7.73,5.35 -11.63,7.97 -15.33,-2.88 -30.49,-6.05 -45.31,-11.01 -3.56,-1.47 -6.91,-2.37 -9.02,-5.89 0.04,-4.25 0.85,-8.37 1.81,-12.49 1.59,-7.37 3.1,-14.76 4.85,-22.1 2.14,-0.24 4.28,-0.47 6.42,-0.7 z"
     fill="#feebd3"
     id="path16" />
  <path
     d="m 159.28,146.85029 c 12.42,-0.14 24.84,0.66 37.28,0.41 -2.65,1.92 -5.12,4.09 -7.73,6.06 -5.46,4.14 -10.52,8.78 -15.89,13.04 -4.92,4.14 -10.18,7.84 -15.16,11.9 -1.99,-1.06 -4.44,-1.77 -4.04,-4.58 0.96,-8.45 2.82,-16.85 4.59,-25.17 0.3,-0.56 0.62,-1.11 0.95,-1.66 z"
     fill="#644118"
     id="path17" />
  <path
     d="m 146.23,148.21029 0.15,-0.15 c 1.97,-0.28 3.95,-0.52 5.93,-0.75 -1.75,7.34 -3.26,14.73 -4.85,22.1 -10.6,4.22 -21.24,8.68 -32.19,11.92 9.89,-11.41 20.47,-22.26 30.96,-33.12 z"
     fill="#644118"
     id="path18" />
  <path
     d="m 196.56,147.26029 c 22,0.1 44.01,0.76 66.01,1.05 -7.03,6.32 -14.14,12.53 -21.36,18.63 -17.7,-3.65 -35.12,-8.3 -52.38,-13.62 2.61,-1.97 5.08,-4.14 7.73,-6.06 z"
     fill="#feebd3"
     id="path19" />
  <path
     d="m 264.47,147.30029 c -2.45,11.84 -6.95,23.15 -13,33.6 -2.36,4.02 -4.7,7.98 -7.81,11.48 -16.49,13.48 -34.7,24.51 -53.79,33.9 -13.92,6.84 -28.14,13.11 -42.88,17.98 -2.56,0.83 -5,1.91 -7.38,3.17 -3.75,0.62 -7.25,1.49 -10.85,2.69 -13.79,4.02 -27.83,7.59 -42,9.97 -6.03,0.97 -11.93,2.15 -18.07,2.18 2.87,-2.36 5.69,-4.7 8.85,-6.66 4.47,-1.82 8.88,-3.74 13.47,-5.23 15.68,-5.22 31.43,-10.81 46.62,-17.34 21.75,-9.48 42.59,-21.13 62.35,-34.24 3.9,-2.62 7.74,-5.33 11.63,-7.97 10.36,-7.24 20.09,-15.56 29.6,-23.89 7.22,-6.1 14.33,-12.31 21.36,-18.63 0.63,-0.34 1.27,-0.67 1.9,-1.01 z"
     fill="#644118"
     id="path20" />
  <path
     d="m 348.19,147.65029 c 1.28,7.24 0.4,14.21 -0.4,21.45 -4.21,30.97 -19.75,60.25 -42.45,81.66 -17.72,16.55 -40.14,28.37 -63.72,33.95 -5.16,1.11 -10.56,2.03 -15.8,2.73 -12.67,1.06 -25.62,0.43 -38.08,-2.16 3.87,-0.44 7.74,-0.9 11.62,-1.29 32.22,-3.87 63.91,-15.86 90.11,-35.1 18.6,-14.04 34.62,-33.33 42.61,-55.4 3.68,-9.68 5.39,-19.72 7.03,-29.89 3.28,-5.21 6.23,-10.49 9.08,-15.95 z"
     fill="#e4c4a0"
     id="path21" />
  <path
     d="m 188.83,153.32029 c 17.26,5.32 34.68,9.97 52.38,13.62 -9.51,8.33 -19.24,16.65 -29.6,23.89 -13.01,-1.93 -25.81,-4.79 -38.59,-7.85 -5.16,-1.27 -10.29,-2.78 -15.24,-4.72 4.98,-4.06 10.24,-7.76 15.16,-11.9 5.37,-4.26 10.43,-8.9 15.89,-13.04 z"
     fill="#ae5f24"
     id="path22" />
  <path
     d="m 147.46,169.41029 c -0.96,4.12 -1.77,8.24 -1.81,12.49 -12.42,6.6 -24.71,13.42 -37.11,20.06 -5.52,2.92 -10.26,6.15 -16.25,8 7.27,-9.83 15.21,-19.18 22.98,-28.63 10.95,-3.24 21.59,-7.7 32.19,-11.92 z"
     fill="#ae5f24"
     id="path23" />
  <path
     d="m 145.65,181.90029 c 2.11,3.52 5.46,4.42 9.02,5.89 -12.85,8.86 -25.55,17.87 -38.1,27.16 -15.11,10.89 -29.82,22.28 -45.08,32.95 -3.73,2.78 -7.51,5.36 -11.87,7.06 10.61,-15.19 21.44,-30.26 32.67,-45 5.99,-1.85 10.73,-5.08 16.25,-8 12.4,-6.64 24.69,-13.46 37.11,-20.06 z"
     fill="#644118"
     id="path24" />
  <path
     d="m 154.67,187.79029 c 14.82,4.96 29.98,8.13 45.31,11.01 -19.76,13.11 -40.6,24.76 -62.35,34.24 -15.19,6.53 -30.94,12.12 -46.62,17.34 -4.59,1.49 -9,3.41 -13.47,5.23 -7.51,2.03 -15.02,4.03 -22.61,5.75 1.56,-2.14 3.14,-4.26 4.69,-6.4 4.36,-1.7 8.14,-4.28 11.87,-7.06 15.26,-10.67 29.97,-22.06 45.08,-32.95 12.55,-9.29 25.25,-18.3 38.1,-27.16 z"
     fill="#ae5f24"
     id="path25" />
  <path
     d="m 243.66,192.38029 c -2.38,5.57 -6.03,10.21 -9.74,14.93 -4.91,6.07 -10.12,11.86 -15.87,17.15 -15.72,14.74 -33.13,27.15 -50.67,40.35 -5.14,4.04 -10.46,6.44 -14.43,11.79 -8.58,-1.68 -17.03,-0.69 -25.43,1.42 -6.52,1.56 -13.06,2.87 -19.48,4.82 -7.26,1.17 -15.67,1.77 -21.98,5.63 -16.61,8.67 -33.11,17.52 -49.61,26.38 -3.39,1.76 -6.71,3.6 -9.86,5.77 -3.36,-0.14 -6.71,-0.23 -10.07,-0.21 4.09,-2.88 8.47,-5.2 12.79,-7.68 17.14,-9.84 34.35,-19.54 51.28,-29.71 16.03,-9.67 32.18,-19.14 48.17,-28.86 3.66,-2.17 7.37,-4.25 10.85,-6.73 2.38,-1.26 4.82,-2.34 7.38,-3.17 14.74,-4.87 28.96,-11.14 42.88,-17.98 19.09,-9.39 37.3,-20.42 53.79,-33.9 z"
     fill="#e4c4a0"
     id="path28" />
  <path
     d="m 139.61,247.43029 c -3.48,2.48 -7.19,4.56 -10.85,6.73 -15.99,9.72 -32.14,19.19 -48.17,28.86 -16.93,10.17 -34.14,19.87 -51.28,29.71 -4.32,2.48 -8.7,4.8 -12.79,7.68 -5.77,-0.08 -11.1799998,-0.18 -16.51999975655969,-2.62 C 22.13,298.44029 45.76,280.71029 68.69,262.27029 c 6.14,-0.03 12.04,-1.21 18.07,-2.18 14.17,-2.38 28.21,-5.95 42,-9.97 3.6,-1.2 7.1,-2.07 10.85,-2.69 z"
     fill="#ae5f24"
     id="path41" />
  <path
     d="m 168.17,281.59029 c 5.09,1.22 10.35,1.93 15.49,2.91 3.99,8.42 8.44,16.62 12.94,24.78 2.66,4.75 5.59,8.97 10.68,11.35 6.13,3.02 12.33,1.66 19.52,2.56 2.11,-2.75 3.89,-5.33 7.26,-6.66 3.62,-1.52 8.32,-0.08 12.16,0.11 3.76,0.37 7.21,-0.63 10.68,-1.91 -10,-9.52 -20.88,-18.02 -31.08,-27.29 5.24,-0.7 10.64,-1.62 15.8,-2.73 5.71,5.48 11.01,11.34 16.67,16.86 5.53,5.32 10.53,11.43 18,14.03 7.15,2.87 15.01,0.9 22.98,2.26 7.02,1.04 14,3.97 15.75,11.59 -5.32,-2.95 -9.85,-4.17 -15.89,-4.77 1.64,2.53 2.37,4.42 2.65,7.49 -2.53,-1.81 -4.89,-3.57 -8.05,-4.09 -8.13,-1.52 -15.78,-1.17 -23.67,-4.38 -1.91,-0.59 -4.31,-2.18 -6.29,-1.43 -3.87,0.99 -7.47,2.23 -11.53,2.16 -5.25,0.07 -9.89,-1.75 -15,-2.16 -2.7,-0.2 -5.22,0.76 -7.78,1.5 3.46,1.57 7.29,2.79 9.65,5.97 1.72,2.17 1.94,4.57 2.54,7.18 -3.77,-3.55 -8.02,-4.89 -13.01,-5.83 0.19,2.3 0.38,4.6 0.56,6.9 -2.12,-1.42 -4.24,-2.79 -6.63,-3.72 -5.5,-2.33 -11,-1.71 -17.15,-3.15 -3.69,-0.59 -6.8,-2.38 -10.27,-3.6 -4.65,0.34 -9.22,1.11 -13.92,0.91 -4.6,0.17 -9.18,-0.87 -13.75,-0.49 -3.4,0.35 -5.73,2.25 -8.33,4.24 1.56,-4.03 2.88,-8.56 7.12,-10.56 5.27,-2.48 10.47,-0.14 15.96,-1.13 2.65,-0.41 4.69,-1.71 6.98,-3 -0.83,-1.76 -1.64,-3.52 -2.6,-5.21 -6.03,-10.3 -12.53,-20.32 -18.44,-30.69 z"
     fill="#ae5f24"
     id="path42" />
  <path
     d="m 108.04,282.84029 c -21.73,11.36 -42.08,25.42 -63.81,36.84 -5.23,2.2 -12.05,0.79 -17.64,0.94 3.15,-2.17 6.47,-4.01 9.86,-5.77 16.5,-8.86 33,-17.71 49.61,-26.38 6.31,-3.86 14.72,-4.46 21.98,-5.63 z"
     fill="#644118"
     id="path43" />
</svg>
